<?xml version="1.0" encoding="UTF-8"?>
<svg version="1.1" xmlns="http://www.w3.org/2000/svg" width="1280" height="675">
<path d="M0 0 C422.4 0 844.8 0 1280 0 C1280 222.75 1280 445.5 1280 675 C857.6 675 435.2 675 0 675 C0 452.25 0 229.5 0 0 Z " fill="#003580" transform="translate(0,0)"/>
<path d="M0 0 C263.01 0 526.02 0 797 0 C797 222.75 797 445.5 797 675 C533.99 675 270.98 675 0 675 C0 593.82 0 512.64 0 429 C262.68 429 525.36 429 796 429 C796 368.61 796 308.22 796 246 C533.32 246 270.64 246 0 246 C0 164.82 0 83.64 0 0 Z " fill="#FEFEFE" transform="translate(483,0)"/>
<path d="M0 0 C99.99 0 199.98 0 303 0 C303 81.18 303 162.36 303 246 C203.01 246 103.02 246 0 246 C0 164.82 0 83.64 0 0 Z " fill="#FEFEFE" transform="translate(0,429)"/>
<path d="M0 0 C99.99 0 199.98 0 303 0 C303 81.18 303 162.36 303 246 C203.01 246 103.02 246 0 246 C0 164.82 0 83.64 0 0 Z " fill="#FEFEFE" transform="translate(0,0)"/>
<path d="M0 0 C0.33 0 0.66 0 1 0 C1 59.73 1 119.46 1 181 C-261.35 181 -523.7 181 -794 181 C-794 262.18 -794 343.36 -794 427 C-794.33 427 -794.66 427 -795 427 C-795 345.49 -795 263.98 -795 180 C-791.90644839 178.96881613 -789.79759359 178.87528892 -786.55548936 178.8758015 C-785.41491448 178.87355421 -784.27433959 178.87130692 -783.09920183 178.86899152 C-781.20746752 178.87293204 -781.20746752 178.87293204 -779.27751637 178.87695217 C-777.92502605 178.87621295 -776.57253591 178.87503481 -775.22004631 178.87345567 C-771.47878407 178.87037373 -767.73754881 178.87357244 -763.99628858 178.87773381 C-759.9354912 178.88115686 -755.87469666 178.87879934 -751.81389874 178.87715632 C-744.68874029 178.87507843 -737.56359018 178.87673341 -730.43843269 178.88079453 C-719.8434967 178.88681659 -709.24856598 178.88713154 -698.65362858 178.88625254 C-680.83336242 178.88493696 -663.01309995 178.88828641 -645.19283485 178.89426994 C-627.54169 178.90018154 -609.8905467 178.90403479 -592.23940086 178.90512276 C-591.14300678 178.9051915 -590.0466127 178.90526024 -588.91699455 178.90533106 C-583.3492459 178.90566938 -577.78149725 178.90597077 -572.2137486 178.90625793 C-532.74983851 178.90835985 -493.28593044 178.91510139 -453.82202148 178.92456055 C-415.47696951 178.93374094 -377.13191809 178.94082653 -338.78686523 178.94506836 C-337.60546159 178.94519989 -336.42405794 178.94533141 -335.20685418 178.94546692 C-323.3430037 178.94678541 -311.47915322 178.94806123 -299.61530274 178.94930578 C-275.44602435 178.95184218 -251.27674599 178.95466343 -227.10746765 178.95765686 C-225.44047285 178.9578628 -225.44047285 178.9578628 -223.73980138 178.95807289 C-189.66770528 178.96229703 -155.59560952 178.96772885 -121.52351379 178.97434998 C-120.55593283 178.97453753 -119.58835187 178.97472509 -118.59145027 178.97491833 C-79.39430003 178.98253468 -40.19715005 178.99142788 -1 179 C-0.505 90.395 -0.505 90.395 0 0 Z " fill="#0C3068" transform="translate(1277,248)"/>
<path d="M0 0 C0.99 0 1.98 0 3 0 C3 81.18 3 162.36 3 246 C-96.99 246 -196.98 246 -300 246 C-300 245.67 -300 245.34 -300 245 C-201.66 245 -103.32 245 -2 245 C-2.33 243.35 -2.66 241.7 -3 240 C-2.01 240 -1.02 240 0 240 C0 160.8 0 81.6 0 0 Z " fill="#E2ECF1" transform="translate(300,0)"/>
<path d="M0 0 C0.33 0 0.66 0 1 0 C1 59.73 1 119.46 1 181 C-0.98 180.67 -2.96 180.34 -5 180 C-3.68 179.67 -2.36 179.34 -1 179 C-0.67 119.93 -0.34 60.86 0 0 Z " fill="#03336F" transform="translate(1277,248)"/>
</svg>
