<?xml version="1.0" encoding="UTF-8"?>
<svg version="1.1" xmlns="http://www.w3.org/2000/svg" width="1280" height="853">
<path d="M0 0 C422.4 0 844.8 0 1280 0 C1280 281.49 1280 562.98 1280 853 C857.6 853 435.2 853 0 853 C0 571.51 0 290.02 0 0 Z " fill="#0000FD" transform="translate(0,0)"/>
<path d="M0 0 C422.4 0 844.8 0 1280 0 C1280 94.05 1280 188.1 1280 285 C857.6 285 435.2 285 0 285 C0 190.95 0 96.9 0 0 Z " fill="#FD0000" transform="translate(0,568)"/>
<path d="M0 0 C422.4 0 844.8 0 1280 0 C1280 93.72 1280 187.44 1280 284 C857.6 284 435.2 284 0 284 C0 190.28 0 96.56 0 0 Z " fill="#FEFEFE" transform="translate(0,0)"/>
</svg>
