<?xml version="1.0" encoding="UTF-8"?>
<svg version="1.1" xmlns="http://www.w3.org/2000/svg" width="1280" height="720">
<path d="M0 0 C422.4 0 844.8 0 1280 0 C1280 237.6 1280 475.2 1280 720 C857.6 720 435.2 720 0 720 C0 482.4 0 244.8 0 0 Z " fill="#FCD500" transform="translate(0,0)"/>
<path d="M0 0 C422.4 0 844.8 0 1280 0 C1280 118.8 1280 237.6 1280 360 C857.6 360 435.2 360 0 360 C0 241.2 0 122.4 0 0 Z " fill="#015BBB" transform="translate(0,0)"/>
<path d="M0 0 C422.4 0 844.8 0 1280 0 C1280 1.65 1280 3.3 1280 5 C857.6 5 435.2 5 0 5 C0 3.35 0 1.7 0 0 Z " fill="#EAD11E" transform="translate(0,360)"/>
<path d="M0 0 C422.07 0 844.14 0 1279 0 C1279 1.32 1279 2.64 1279 4 C856.6 4 434.2 4 -1 4 C-0.67 2.68 -0.34 1.36 0 0 Z " fill="#0C59A2" transform="translate(1,356)"/>
</svg>
