<svg version="1.1" id="Layer_1" xmlns="http://www.w3.org/2000/svg" xmlns:xlink="http://www.w3.org/1999/xlink" x="0px" y="0px"
	 width="100%" viewBox="0 0 283 156" enable-background="new 0 0 283 156" xml:space="preserve">
<path fill="#FFFFFF" opacity="1.000000" stroke="none" 
	d="
M198.000000,157.000000 
	C132.000015,157.000000 66.500015,157.000000 1.000018,157.000000 
	C1.000012,105.000015 1.000012,53.000027 1.000006,1.000031 
	C95.333313,1.000021 189.666626,1.000021 283.999939,1.000010 
	C283.999969,52.999969 283.999969,104.999939 284.000000,156.999954 
	C255.500000,157.000000 227.000000,157.000000 198.000000,157.000000 
M23.635403,72.294563 
	C23.425793,71.862976 23.216185,71.431381 23.123981,70.177544 
	C23.628431,66.229271 24.132883,62.280998 25.154568,57.962784 
	C25.146952,57.194714 25.139336,56.426647 25.351679,54.851250 
	C25.667892,52.901138 25.984104,50.951031 26.888741,48.874622 
	C26.766220,48.192688 26.643702,47.510750 26.390081,46.096539 
	C26.602592,45.397774 26.815104,44.699005 27.951300,44.000340 
	C29.186346,43.930656 30.421391,43.860973 32.187504,44.191437 
	C37.978252,55.728745 43.768997,67.266052 49.559746,78.803360 
	C50.142506,78.689705 50.725266,78.576057 51.308029,78.462410 
	C57.311924,66.566734 63.315823,54.671066 70.253632,42.899117 
	C71.501907,42.932747 72.750191,42.966377 74.306740,43.792625 
	C75.129593,49.415516 75.952446,55.038410 76.412476,61.254898 
	C76.683861,61.832478 76.955246,62.410061 77.306366,63.772202 
	C77.562393,66.181938 77.818413,68.591675 77.660393,71.285110 
	C77.959717,71.950539 78.259041,72.615974 78.707199,74.170273 
	C78.617950,75.590881 78.528702,77.011482 78.407921,78.934044 
	C83.361412,79.179665 88.064812,79.412880 93.562805,79.970261 
	C95.165733,79.970261 96.768661,79.970261 98.371590,79.970261 
	C98.383858,79.427818 98.396126,78.885368 98.408394,78.342926 
	C96.643829,78.192421 94.879257,78.041916 92.475571,77.554810 
	C87.443657,74.768936 88.392868,69.612396 88.115524,64.915390 
	C87.855072,64.276207 87.594627,63.637032 87.065407,62.197224 
	C86.909019,60.519432 86.752632,58.841637 87.216606,56.817520 
	C86.806412,55.878277 86.396217,54.939034 85.625916,53.227177 
	C85.257675,50.210812 84.889427,47.194443 85.092438,43.921833 
	C84.795815,43.281467 84.499191,42.641106 83.881821,41.178814 
	C83.064041,35.186504 82.246254,29.194193 82.031784,22.942719 
	C81.699120,22.295290 81.366463,21.647863 80.688416,20.248829 
	C80.268044,17.984447 79.847672,15.720065 79.427299,13.455684 
	C77.370308,14.787537 76.523109,16.146269 75.817970,17.575111 
	C69.171608,31.042904 62.549465,44.522655 55.007652,57.998447 
	C53.476875,58.057755 51.946102,58.117062 49.906536,57.727310 
	C43.247993,44.222691 36.644505,30.690218 29.847971,17.255407 
	C29.148066,15.871894 27.295874,15.071313 25.358536,14.079576 
	C25.351936,14.764743 25.345335,15.449909 25.407207,16.962801 
	C24.537228,22.308620 23.667248,27.654440 22.143137,33.136005 
	C22.222309,34.140343 22.301479,35.144680 22.463964,36.958580 
	C21.973854,39.639080 21.483744,42.319576 20.299452,45.111748 
	C20.358496,46.134926 20.417540,47.158104 20.518826,49.028614 
	C19.671021,54.911938 19.002163,60.828800 17.908024,66.665947 
	C17.255915,70.144913 15.935930,73.498680 14.200648,76.937096 
	C12.836206,77.496178 11.471764,78.055252 10.107321,78.614326 
	C10.211968,79.026825 10.316616,79.439323 10.421265,79.851814 
	C11.556008,79.767380 12.690752,79.682938 14.765479,79.488228 
	C18.219532,79.490799 21.673586,79.493378 25.662960,79.897850 
	C26.969803,79.840523 28.276648,79.783203 29.583490,79.725883 
	C29.643950,79.291481 29.704411,78.857086 29.764870,78.422691 
	C27.880264,77.907822 25.995659,77.392960 23.649815,76.538811 
	C23.504967,76.025269 23.360119,75.511734 23.803665,74.899101 
	C23.762655,74.201942 23.721643,73.504776 23.635403,72.294563 
M85.754951,126.016045 
	C86.796425,125.467796 87.837898,124.919548 88.879372,124.371292 
	C88.541206,123.912781 88.203049,123.454262 87.864883,122.995750 
	C86.884628,123.972702 85.904366,124.949654 84.336601,126.051468 
	C83.887856,126.673523 83.439117,127.295570 82.990372,127.917625 
	C83.205421,128.061768 83.420464,128.205917 83.635506,128.350067 
	C84.104454,127.586243 84.573402,126.822411 85.754951,126.016045 
M197.337082,13.861867 
	C197.420471,13.748792 197.592056,13.555454 197.573532,13.535103 
	C197.397293,13.341465 197.188828,13.177169 196.055191,13.068557 
	C188.261002,12.830441 180.466812,12.592325 171.977219,12.175628 
	C171.495499,12.413136 171.013794,12.650645 170.532074,12.888151 
	C171.056534,13.243698 171.580978,13.599245 172.571426,13.947451 
	C172.571426,13.947451 172.981308,14.169294 173.093719,14.812375 
	C174.084930,14.804999 175.076126,14.797624 176.675613,14.842435 
	C177.120911,15.220832 177.566208,15.599230 177.981522,16.690006 
	C178.524002,17.806349 179.066498,18.922689 179.800568,20.952461 
	C179.536148,29.631966 179.271713,38.311470 178.969330,47.347260 
	C178.969330,47.347260 178.970871,47.705608 178.162827,47.814072 
	C176.335083,48.147633 174.507339,48.481190 172.679596,48.814751 
	C172.783310,49.267906 172.887009,49.721058 172.990723,50.174213 
	C175.001328,49.809982 177.011948,49.445755 179.468094,49.659008 
	C179.890610,49.901134 180.313126,50.143261 180.287949,51.168461 
	C180.071365,56.770237 179.854782,62.372017 178.964386,68.191116 
	C179.020020,70.141884 179.075653,72.092644 179.181900,74.730499 
	C178.663727,75.735924 178.145538,76.741356 176.900665,77.789940 
	C175.508286,78.179749 174.115891,78.569565 171.951172,78.950577 
	C170.427551,78.720413 168.903946,78.490242 166.746170,78.113686 
	C163.189163,74.674477 159.632156,71.235275 156.040375,67.084885 
	C155.272583,66.426537 154.504776,65.768188 153.232422,64.855721 
	C152.818863,64.243629 152.405319,63.631542 152.008163,62.269699 
	C151.241150,61.553493 150.474152,60.837288 149.168533,59.829063 
	C148.461609,58.844593 147.754669,57.860123 147.033829,56.164841 
	C146.304230,55.464504 145.574646,54.764168 144.300201,53.798340 
	C143.894012,53.124443 143.487823,52.450542 143.056137,50.941101 
	C143.001831,49.543678 142.947525,48.146255 143.172791,46.157516 
	C145.479340,43.440891 147.785904,40.724266 150.834198,37.843739 
	C151.061661,36.969395 151.289108,36.095051 151.432800,34.404533 
	C153.017258,26.905169 151.375961,20.513859 144.910492,15.126553 
	C143.608719,14.745410 142.306946,14.364266 140.153000,14.026154 
	C130.101440,13.673976 120.049889,13.321797 109.457520,12.459433 
	C107.689369,12.459433 105.921211,12.459433 104.153061,12.459433 
	C104.104210,13.040272 104.055359,13.621111 104.006508,14.201950 
	C105.959045,14.516949 107.911575,14.831946 110.292709,15.803229 
	C110.973724,17.571507 112.233360,19.335739 112.245750,21.108688 
	C112.362640,37.834095 112.333435,54.561752 112.142021,71.286415 
	C112.119904,73.218735 110.854919,75.136841 109.363380,77.024689 
	C107.642944,77.471710 105.922508,77.918739 104.202080,78.365768 
	C104.277374,79.069313 104.352669,79.772858 104.427963,80.476402 
	C106.295120,80.294563 108.162277,80.112732 110.876945,79.976753 
	C115.519890,79.890274 120.162842,79.803787 125.635025,80.040230 
	C127.566360,79.939156 129.497696,79.838074 131.429031,79.736992 
	C131.411438,79.236656 131.393829,78.736320 131.376236,78.235985 
	C129.325211,78.094070 127.274178,77.952156 124.658325,77.278107 
	C124.056374,69.517693 123.454414,61.757282 123.803780,54.000557 
	C127.024673,53.952133 130.245575,53.903709 134.025970,54.191589 
	C135.495590,56.189342 137.074295,58.116619 138.417618,60.195965 
	C149.405411,77.204277 163.690430,90.226364 183.045898,97.804764 
	C183.699234,97.861938 184.352570,97.919113 185.687408,97.930832 
	C186.112015,98.082222 186.536621,98.233612 187.050720,98.913254 
	C187.693771,98.964333 188.336823,99.015404 189.744995,99.023926 
	C191.487411,99.438293 193.229843,99.852669 195.059387,100.834221 
	C195.723892,100.831207 196.388412,100.828194 197.984863,100.782341 
	C206.306595,100.801895 214.628326,100.821457 223.216827,101.337738 
	C223.821136,100.989639 224.425430,100.641541 225.718338,99.937462 
	C227.481567,99.632729 229.244797,99.327995 231.293320,99.476364 
	C231.874191,99.100372 232.455048,98.724380 233.628571,98.030083 
	C234.505661,97.873703 235.382736,97.717316 237.059280,97.795212 
	C238.708221,96.881889 240.357178,95.968567 242.352142,94.709229 
	C242.352142,94.709229 242.812790,94.541786 242.812790,94.541786 
	C242.812790,94.541786 243.297882,94.611862 244.027298,94.815613 
	C244.690720,94.263054 245.354141,93.710503 246.491150,92.706711 
	C248.156815,91.730309 249.822479,90.753906 252.226425,89.874718 
	C252.814499,89.242470 253.402573,88.610222 254.308792,87.396065 
	C257.532410,83.929619 260.756012,80.463181 264.738220,76.863937 
	C265.012604,75.997162 265.286987,75.130386 265.596771,73.602928 
	C266.178040,72.413963 266.759277,71.225006 267.872528,69.954636 
	C267.950439,69.314026 268.028351,68.673424 268.082062,67.331146 
	C268.260712,66.904099 268.439331,66.477043 269.108368,65.897705 
	C269.054474,65.260239 269.000549,64.622772 268.835571,63.105690 
	C268.867798,60.743706 268.900024,58.381718 269.385468,55.775940 
	C269.131775,55.166813 268.878082,54.557686 268.263306,53.346443 
	C268.210144,52.886372 268.157013,52.426304 268.539398,51.665325 
	C268.132843,51.098915 267.726288,50.532509 266.961853,49.356014 
	C263.980072,45.854206 260.998291,42.352398 257.853729,38.133415 
	C257.004883,37.878147 256.156036,37.622879 254.825821,37.390606 
	C254.497513,37.323479 254.225952,37.161316 253.952133,36.323868 
	C253.296356,36.232777 252.640564,36.141685 251.301071,36.041931 
	C250.882111,35.872112 250.463135,35.702290 249.922882,35.009583 
	C249.274902,35.030613 248.626907,35.051643 247.297867,35.155460 
	C246.875504,34.996822 246.453156,34.838184 245.903000,34.069687 
	C244.927582,34.072788 243.952179,34.075890 242.145844,34.207176 
	C240.472427,34.083527 238.798996,33.959877 236.940720,32.940460 
	C236.938278,28.377048 236.684906,23.792246 237.071091,19.261963 
	C237.204086,17.701712 238.931854,16.277403 240.211792,15.312359 
	C240.812454,14.914631 241.413116,14.516903 242.407410,13.910675 
	C242.407410,13.910675 242.852081,13.936795 243.534439,13.928451 
	C243.812012,13.501980 244.089584,13.075509 244.367172,12.649042 
	C243.667770,12.578717 242.968384,12.508391 241.576431,12.694280 
	C235.479111,12.784906 229.379425,12.806855 223.286209,13.016552 
	C221.841431,13.066274 220.418320,13.745687 219.094894,14.787678 
	C220.090714,14.770985 221.086533,14.754292 222.843979,14.855405 
	C223.885452,16.591597 225.658997,18.262188 225.821625,20.077131 
	C226.203369,24.337229 225.814575,28.666372 225.060410,33.067764 
	C223.358032,33.870235 221.655655,34.672703 219.229507,35.707340 
	C218.471298,35.757545 217.713089,35.807751 216.472015,35.352345 
	C214.304459,36.133823 212.136917,36.915306 209.301331,37.758595 
	C208.856064,37.800545 208.410782,37.842495 207.668411,37.462582 
	C207.098541,37.835766 206.528671,38.208954 205.324478,38.795353 
	C204.884903,38.870182 204.445328,38.945011 203.716400,38.553234 
	C203.135452,38.949440 202.554504,39.345642 201.257065,39.858543 
	C199.477402,40.528152 197.697723,41.197765 195.129913,41.790009 
	C194.083420,41.876034 193.036926,41.962059 191.997131,41.104919 
	C191.994720,37.680733 192.136292,34.248722 191.950653,30.834497 
	C191.753113,27.201551 191.245697,23.585455 190.773041,19.237869 
	C191.179672,18.156956 191.586288,17.076042 192.789413,16.024101 
	C194.180389,15.327633 195.571365,14.631166 196.983124,14.002703 
	C196.983124,14.002703 196.924072,13.963065 197.337082,13.861867 
M58.152874,142.204132 
	C52.370586,141.122482 55.471851,137.861755 57.145935,134.643143 
	C53.176620,135.970703 50.047523,137.501862 51.481674,141.354156 
	C52.842560,145.009644 56.067421,145.047440 59.821396,143.001450 
	C60.543354,142.670410 61.265312,142.339371 62.737576,141.913742 
	C64.023834,142.614288 65.310089,143.314850 66.632446,144.035065 
	C66.361679,139.587921 66.462051,135.674850 65.779121,131.903610 
	C65.294350,129.226608 64.450264,125.649284 62.523911,124.418076 
	C59.394680,122.418083 55.453228,123.213654 51.376221,126.240265 
	C54.193699,126.003975 56.011642,125.602982 57.769341,125.784721 
	C59.114342,125.923790 61.517788,126.820869 61.507889,127.344048 
	C61.422318,131.867447 60.896282,136.382523 60.085281,140.971436 
	C59.705593,141.359451 59.325901,141.747482 58.152874,142.204132 
M99.005051,124.994637 
	C99.005051,124.994637 98.997673,124.937660 98.290642,124.635742 
	C92.856888,128.140030 90.952057,134.893356 93.950943,140.021454 
	C96.611237,144.570541 102.277206,145.510132 107.650322,142.293243 
	C97.443512,141.407837 95.914803,140.166779 97.051620,133.017807 
	C100.062294,132.667984 103.072960,132.318161 106.712212,132.211395 
	C107.617027,131.789932 108.521851,131.368469 109.426674,130.947021 
	C108.388626,128.858017 107.854004,125.826523 106.178246,124.931442 
	C104.310013,123.933533 101.404358,124.877831 99.005051,124.994637 
M144.774063,126.065437 
	C148.819153,125.629768 150.065033,127.815338 149.985580,131.451813 
	C149.896027,135.551651 149.964966,139.654968 149.964966,143.756760 
	C150.513962,143.900986 151.062958,144.045197 151.611954,144.189423 
	C152.132263,143.057846 153.031708,141.948944 153.100937,140.790405 
	C153.299088,137.474869 153.468155,134.099686 153.048111,130.825012 
	C152.757980,128.563232 151.930496,125.029236 150.521088,124.566231 
	C148.401932,123.870079 145.563263,125.364220 142.820526,126.381531 
	C142.562271,126.585434 142.304001,126.789337 141.460495,126.599716 
	C140.145935,125.685051 138.831360,124.770386 137.418289,123.787170 
	C137.744217,130.880402 138.033737,137.181091 138.323257,143.481781 
	C138.725540,143.749680 139.127823,144.017578 139.530106,144.285492 
	C140.321167,143.155640 141.696899,142.075623 141.798233,140.886963 
	C142.162750,136.611420 142.097122,132.299194 142.766510,127.918526 
	C143.178070,127.346992 143.589645,126.775452 144.774063,126.065437 
M120.349739,126.222527 
	C118.544365,125.543686 116.738991,124.864853 115.321243,124.331772 
	C115.562614,130.083572 115.716331,135.417557 116.068634,140.738403 
	C116.139442,141.807739 116.964737,142.827087 117.442162,143.869492 
	C118.060730,142.786026 119.106934,141.742767 119.213333,140.611145 
	C119.475716,137.820389 119.089233,134.966431 119.379128,132.181137 
	C119.616951,129.896057 120.452988,127.673241 121.714668,125.976631 
	C126.516190,125.288292 127.878639,127.912834 127.748077,132.123215 
	C127.650070,135.283539 127.545456,138.462280 127.802826,141.603409 
	C127.878113,142.522263 129.183899,143.340317 129.925690,144.204575 
	C131.014282,139.340027 131.035507,135.360428 131.009750,131.381149 
	C130.960388,123.755959 127.753525,121.871140 120.349739,126.222527 
M76.221786,130.372299 
	C76.168716,127.390221 76.424820,124.359863 75.968933,121.440689 
	C75.573891,118.911110 77.882195,115.299164 73.207741,113.375061 
	C73.207741,123.908737 73.207741,133.771622 73.207741,143.634521 
	C73.605011,143.825592 74.002281,144.016647 74.399551,144.207718 
	C74.962868,143.184601 75.774284,142.220642 76.035446,141.125473 
	C76.510597,139.132965 76.658958,137.062515 77.577164,134.537720 
	C81.716400,137.116074 82.301453,144.135056 89.977837,144.029373 
	C86.809059,140.509506 84.386559,137.656204 81.777847,134.984741 
	C80.325539,133.497482 78.563110,132.313080 76.221786,130.372299 
M228.144348,142.600449 
	C235.350418,138.228928 238.120667,130.913315 235.583832,122.954300 
	C233.792603,117.334488 229.721954,114.726624 223.543900,115.240883 
	C233.582413,120.702393 235.077545,132.674545 226.250168,142.060974 
	C226.650925,142.298615 227.051697,142.536255 228.144348,142.600449 
M253.755646,130.880447 
	C256.567780,125.579613 259.379883,120.278770 262.192017,114.977928 
	C261.609039,114.676208 261.026062,114.374496 260.443085,114.072784 
	C258.347961,118.003571 256.345520,121.988342 254.104492,125.834106 
	C253.377762,127.081223 252.026306,127.964302 250.407867,128.586212 
	C248.598373,124.844017 246.983582,120.987045 244.879868,117.418282 
	C244.081284,116.063522 242.157425,115.372086 240.746445,114.378326 
	C240.440506,114.751228 240.134567,115.124138 239.828629,115.497040 
	C243.774582,124.593346 251.743546,132.336761 249.594788,144.059036 
	C251.409470,143.219223 252.833862,142.155777 252.953720,140.961395 
	C253.284790,137.662781 253.070755,134.309464 253.755646,130.880447 
M32.119755,129.644257 
	C35.113972,133.604675 37.939411,137.711441 41.184731,141.454117 
	C42.499107,142.969940 44.729248,143.691696 46.542671,144.774780 
	C46.879498,144.300034 47.216320,143.825302 47.553143,143.350555 
	C44.520832,139.660843 41.348682,136.072113 38.558365,132.207672 
	C37.893299,131.286575 38.503738,129.444504 38.557423,128.080643 
	C38.557423,128.080643 38.701225,128.127640 39.645668,128.524963 
	C42.869881,126.950264 45.342690,124.738930 44.558334,120.792297 
	C43.753296,116.741608 40.563995,115.159149 36.846916,114.899178 
	C33.063946,114.634598 29.248056,114.840691 25.042749,114.840691 
	C25.042749,123.941681 24.950953,132.742432 25.180498,141.534775 
	C25.204237,142.443954 27.141188,143.303192 28.485537,144.433823 
	C29.107040,138.699814 29.577845,134.356140 30.543579,129.805435 
	C31.003599,129.530685 31.463619,129.255920 32.119755,129.644257 
M219.662292,144.193390 
	C221.269180,144.095230 222.876068,143.997086 224.482956,143.898926 
	C216.419769,142.587845 213.902267,141.224365 212.764297,135.210007 
	C212.052200,131.446472 211.960083,127.098618 213.189713,123.570602 
	C214.340225,120.269600 217.599838,117.703690 219.641281,115.173622 
	C212.887146,115.305992 208.265854,120.155045 207.499634,128.682709 
	C206.756546,136.952835 210.801605,142.484039 219.662292,144.193390 
M179.992737,127.734367 
	C179.562988,132.460373 183.603867,133.505402 186.350464,135.750793 
	C187.688812,136.844940 188.337616,138.782532 189.298538,140.338318 
	C187.491074,141.175079 185.740601,142.200714 183.852524,142.770248 
	C182.883484,143.062561 181.668762,142.540390 180.565063,142.386292 
	C180.524185,142.803772 180.483307,143.221268 180.442413,143.638748 
	C182.649002,143.812286 185.042023,144.595795 187.011581,143.993805 
	C189.128738,143.346695 191.942017,141.697144 192.422852,139.932266 
	C192.871307,138.286285 190.883606,135.744904 189.528366,133.925308 
	C188.703842,132.818314 186.769409,132.574417 185.832535,131.505493 
	C184.664871,130.173203 184.011078,128.390549 183.135376,126.802368 
	C184.859222,126.488907 186.574722,126.009834 188.309952,125.922325 
	C189.400696,125.867325 190.521057,126.399620 192.505157,126.881393 
	C188.631561,122.183617 183.664719,122.593491 179.992737,127.734367 
M159.234726,139.747757 
	C160.317337,143.635361 162.747803,144.949478 165.552246,144.113861 
	C164.613419,142.032272 163.210938,140.131332 162.956528,138.087494 
	C162.529236,134.654602 163.011520,131.116379 162.733444,127.652802 
	C162.632584,126.396545 161.448837,125.227234 160.759186,124.018250 
	C160.187958,125.157104 159.184326,126.273903 159.124908,127.438850 
	C158.930786,131.245224 159.080734,135.069122 159.234726,139.747757 
M175.806747,142.186356 
	C175.276581,140.317825 174.454727,138.475555 174.283646,136.574707 
	C174.017609,133.618866 174.338455,130.612244 174.113449,127.649704 
	C174.020859,126.430756 173.157135,125.270378 172.644180,124.083359 
	C172.068573,125.340996 171.278458,126.550003 170.979172,127.870277 
	C170.693802,129.129196 170.989716,130.508438 170.907852,131.827194 
	C170.705246,135.091278 170.432739,138.351013 170.159439,141.997849 
	C171.548950,142.242050 173.681473,142.616852 175.806747,142.186356 
z"/>
<path fill="#1D5F91" opacity="1.000000" stroke="none" 
	d="
M268.932220,56.019733 
	C268.900024,58.381718 268.867798,60.743706 268.700684,63.757420 
	C268.583160,64.956093 268.600586,65.503044 268.617981,66.049988 
	C268.439331,66.477043 268.260712,66.904099 267.843628,67.838211 
	C267.516968,68.908867 267.428741,69.472458 267.340515,70.036049 
	C266.759277,71.225006 266.178040,72.413963 265.319519,74.134155 
	C264.688049,75.442505 264.333832,76.219620 263.979614,76.996735 
	C260.756012,80.463181 257.532410,83.929619 253.827026,87.718590 
	C252.726212,88.619919 252.107178,89.198715 251.488144,89.777512 
	C249.822479,90.753906 248.156815,91.730309 245.929199,92.918999 
	C244.677444,93.624809 243.987656,94.118332 243.297882,94.611862 
	C243.297882,94.611862 242.812790,94.541786 242.812790,94.541786 
	C242.812790,94.541786 242.352142,94.709229 241.819977,94.881470 
	C239.611832,95.889465 237.935837,96.725212 236.259827,97.560944 
	C235.382736,97.717316 234.505661,97.873703 233.047180,98.116478 
	C231.979858,98.476341 231.493942,98.749802 231.008026,99.023270 
	C229.244797,99.327995 227.481567,99.632729 225.093262,100.022881 
	C223.962143,100.352539 223.456100,100.596779 222.950058,100.841011 
	C214.628326,100.821457 206.306595,100.801895 197.327881,100.579094 
	C196.104691,100.339577 195.538467,100.303307 194.972260,100.267044 
	C193.229843,99.852669 191.487411,99.438293 189.186630,98.812935 
	C188.072586,98.529633 187.516907,98.457321 186.961227,98.385002 
	C186.536621,98.233612 186.112015,98.082222 185.159119,97.730408 
	C184.078140,97.437057 183.525452,97.344147 182.972748,97.251236 
	C163.690430,90.226364 149.405411,77.204277 138.417618,60.195965 
	C137.074295,58.116619 135.495590,56.189342 133.536530,53.662376 
	C129.521301,51.915123 125.920738,49.814587 122.852463,53.996872 
	C123.454414,61.757282 124.056374,69.517693 124.871010,77.862701 
	C124.991058,78.870636 124.898422,79.293968 124.805786,79.717300 
	C120.162842,79.803787 115.519890,79.890274 110.381332,79.676453 
	C109.979210,78.604622 110.072693,77.833076 110.166176,77.061539 
	C110.854919,75.136841 112.119904,73.218735 112.142021,71.286415 
	C112.333435,54.561752 112.362640,37.834095 112.245750,21.108688 
	C112.233360,19.335739 110.973724,17.571507 110.149216,15.116495 
	C110.003265,13.943048 110.000793,13.456333 109.998322,12.969619 
	C120.049889,13.321797 130.101440,13.673976 140.794159,14.243380 
	C142.630875,14.887523 143.826431,15.314442 145.021973,15.741361 
	C151.375961,20.513859 153.017258,26.905169 151.216614,35.012165 
	C150.697769,36.415745 150.395111,37.211693 150.092468,38.007641 
	C147.785904,40.724266 145.479340,43.440891 142.699646,46.551498 
	C140.064148,48.989071 140.893509,50.503113 143.081635,51.776649 
	C143.487823,52.450542 143.894012,53.124443 144.613358,54.244041 
	C145.633591,55.418381 146.340668,56.147015 147.047745,56.875648 
	C147.754669,57.860123 148.461609,58.844593 149.494064,60.292137 
	C150.543655,61.509960 151.267715,62.264706 151.991776,63.019451 
	C152.405319,63.631542 152.818863,64.243629 153.556030,65.286880 
	C154.611481,66.410721 155.343323,67.103394 156.075150,67.796066 
	C159.632156,71.235275 163.189163,74.674477 167.249481,78.490372 
	C170.451370,80.407013 173.149948,81.946968 176.069138,83.736351 
	C180.842896,85.705803 185.396057,87.425827 190.131668,89.375206 
	C190.882874,89.643761 191.451599,89.682968 192.328217,89.868111 
	C193.085602,90.024750 193.535095,90.035446 194.181580,90.258987 
	C194.928467,90.499535 195.478363,90.527237 196.314270,90.760696 
	C197.061203,90.993980 197.522141,91.021507 198.217270,91.278351 
	C199.311615,91.508911 200.171738,91.510139 201.479462,91.650101 
	C207.940689,91.689232 213.954315,91.589615 220.319778,91.584076 
	C222.455215,91.139610 224.238815,90.601074 226.359467,90.099091 
	C227.124451,90.001884 227.552383,89.868134 228.266571,89.806519 
	C229.052856,89.633339 229.552887,89.388046 230.403290,89.147797 
	C231.832687,88.725494 232.911713,88.298149 234.317993,87.896866 
	C235.359665,87.453819 236.074097,86.984711 237.132294,86.553329 
	C239.632217,85.344093 241.788361,84.097130 244.276413,82.791412 
	C250.697311,78.637260 255.296738,73.314575 257.969574,66.426765 
	C261.294708,57.857922 258.314026,48.452900 249.931091,44.890739 
	C241.812332,41.440834 233.133240,39.086704 223.582489,40.975727 
	C218.765976,41.325794 214.391144,41.778099 209.696106,42.132214 
	C208.552505,42.270325 207.729095,42.506626 206.477020,42.708305 
	C203.032135,43.114155 200.015915,43.554630 196.887573,43.717316 
	C196.489639,42.915478 196.203842,42.391430 195.918060,41.867378 
	C197.697723,41.197765 199.477402,40.528152 201.918945,39.906479 
	C203.055786,39.642891 203.530777,39.331364 204.005753,39.019836 
	C204.445328,38.945011 204.884903,38.870182 205.937653,38.765457 
	C207.022385,38.451859 207.493958,38.168152 207.965515,37.884445 
	C208.410782,37.842495 208.856064,37.800545 210.023010,37.851681 
	C212.814758,37.249161 214.884827,36.553555 216.954880,35.857956 
	C217.713089,35.807751 218.471298,35.757545 219.945663,35.686707 
	C222.469345,35.135151 224.276871,34.604229 226.540131,34.067810 
	C230.372437,33.986954 233.749008,33.911594 237.125580,33.836235 
	C238.798996,33.959877 240.472427,34.083527 242.807892,34.361053 
	C244.323547,34.569805 245.177170,34.624680 246.030792,34.679550 
	C246.453156,34.838184 246.875504,34.996822 247.834030,35.324322 
	C248.928192,35.506279 249.486176,35.519371 250.044174,35.532471 
	C250.463135,35.702290 250.882111,35.872112 251.801025,36.301929 
	C252.871048,36.675995 253.441086,36.790058 254.011139,36.904125 
	C254.225952,37.161316 254.497513,37.323479 255.242340,37.655056 
	C256.444733,38.229866 257.230621,38.540226 258.016510,38.850594 
	C260.998291,42.352398 263.980072,45.854206 267.089233,49.951889 
	C267.512390,51.020584 267.808105,51.493408 268.103851,51.966232 
	C268.157013,52.426304 268.210144,52.886372 268.329285,53.909035 
	C268.574219,54.987663 268.753235,55.503700 268.932220,56.019733 
M122.265366,44.049366 
	C122.992561,45.252327 123.429939,46.955681 124.496185,47.573223 
	C129.611938,50.536133 137.387054,48.676498 139.704010,43.248573 
	C141.388870,39.301407 141.946320,34.587147 141.869751,30.234907 
	C141.721542,21.812860 135.502686,16.604584 127.145248,16.698965 
	C123.483757,16.740313 122.111465,18.161919 122.196121,21.789640 
	C122.362732,28.928955 122.248260,36.074829 122.265366,44.049366 
z"/>
<path fill="#1F6192" opacity="1.000000" stroke="none" 
	d="
M92.768204,79.646095 
	C88.064812,79.412880 83.361412,79.179665 78.407921,78.934044 
	C78.528702,77.011482 78.617950,75.590881 78.760834,73.423553 
	C78.567795,72.118362 78.321121,71.559891 78.074440,71.001411 
	C77.818413,68.591675 77.562393,66.181938 77.453156,63.225868 
	C77.325066,62.006790 77.050179,61.334045 76.775291,60.661301 
	C75.952446,55.038410 75.129593,49.415516 74.237274,42.998726 
	C73.870926,40.736111 73.574043,39.267399 73.277168,37.798683 
	C72.802650,37.720287 72.328133,37.641895 71.853622,37.563503 
	C71.008987,39.300800 70.164352,41.038097 69.319717,42.775394 
	C63.315823,54.671066 57.311924,66.566734 51.308029,78.462410 
	C50.725266,78.576057 50.142506,78.689705 49.559746,78.803360 
	C43.768997,67.266052 37.978252,55.728745 31.876503,43.608238 
	C30.639282,41.538605 29.713060,40.052166 28.786840,38.565727 
	C28.420174,38.687672 28.053507,38.809616 27.686840,38.931557 
	C27.467098,40.621117 27.247356,42.310680 27.027615,44.000240 
	C26.815104,44.699005 26.602592,45.397774 26.306522,46.706963 
	C26.248747,47.878563 26.274530,48.439739 26.300316,49.000919 
	C25.984104,50.951031 25.667892,52.901138 25.002941,55.446373 
	C24.648581,56.805241 24.642956,57.568981 24.637333,58.332726 
	C24.132883,62.280998 23.628431,66.229271 22.850460,70.719193 
	C22.663597,71.842087 22.750254,72.423317 22.848461,73.347885 
	C22.978432,74.126869 23.096851,74.562531 23.215271,74.998192 
	C23.360119,75.511734 23.504967,76.025269 23.969286,77.047455 
	C24.568386,78.202721 24.848013,78.849335 25.127640,79.495956 
	C21.673586,79.493378 18.219532,79.490799 14.461870,79.217682 
	C14.410904,78.267662 14.663547,77.588196 14.916190,76.908730 
	C15.935930,73.498680 17.255915,70.144913 17.908024,66.665947 
	C19.002163,60.828800 19.671021,54.911938 20.691099,48.331856 
	C20.906794,46.756756 20.950212,45.878414 20.993633,45.000076 
	C21.483744,42.319576 21.973854,39.639080 22.604946,36.280212 
	C22.763042,34.734653 22.780155,33.867455 22.797268,33.000259 
	C23.667248,27.654440 24.537228,22.308620 25.572365,16.336584 
	C25.817799,15.140326 25.898077,14.570285 25.978357,14.000243 
	C27.295874,15.071313 29.148066,15.871894 29.847971,17.255407 
	C36.644505,30.690218 43.247993,44.222691 50.205509,58.342834 
	C51.286217,60.210674 52.067951,61.462986 53.382023,63.568073 
	C54.530281,61.048767 55.225311,59.523861 55.920341,57.998955 
	C62.549465,44.522655 69.171608,31.042904 75.817970,17.575111 
	C76.523109,16.146269 77.370308,14.787537 79.427299,13.455684 
	C79.847672,15.720065 80.268044,17.984447 80.769745,20.908405 
	C81.043533,22.112617 81.236000,22.657251 81.428467,23.201885 
	C82.246254,29.194193 83.064041,35.186504 83.951843,41.866776 
	C84.188301,43.095848 84.354744,43.636963 84.521179,44.178078 
	C84.889427,47.194443 85.257675,50.210812 85.718582,53.941452 
	C86.072906,55.491768 86.334579,56.327808 86.596245,57.163845 
	C86.752632,58.841637 86.909019,60.519432 87.114685,62.869530 
	C87.297035,64.081535 87.430099,64.621239 87.563171,65.160942 
	C88.392868,69.612396 87.443657,74.768936 92.724121,78.014061 
	C92.904518,78.864243 92.836357,79.255165 92.768204,79.646095 
z"/>
<path fill="#636467" opacity="1.000000" stroke="none" 
	d="
M178.011505,15.977627 
	C177.566208,15.599230 177.120911,15.220832 176.173553,14.528206 
	C174.774780,14.199082 173.878036,14.184189 172.981308,14.169294 
	C172.981308,14.169294 172.571426,13.947451 172.401520,13.673803 
	C172.378632,13.051507 172.525620,12.702858 172.672623,12.354208 
	C180.466812,12.592325 188.261002,12.830441 196.476288,13.274114 
	C196.897400,13.479671 196.924072,13.963065 196.924072,13.963065 
	C196.924072,13.963065 196.983124,14.002703 196.607346,13.897619 
	C194.818680,14.526733 193.405807,15.260931 191.992920,15.995130 
	C191.586288,17.076042 191.179672,18.156956 190.598297,19.943977 
	C190.323837,27.463156 190.224091,34.276222 190.027191,41.431870 
	C189.649719,42.930939 189.369370,44.087433 188.884399,45.528797 
	C187.121338,46.207737 185.562881,46.601803 183.659637,46.930840 
	C182.531906,47.234924 181.748993,47.604038 180.686401,47.935692 
	C179.940262,47.595810 179.473770,47.293392 179.007278,46.990974 
	C179.271713,38.311470 179.536148,29.631966 179.805634,20.163841 
	C179.210953,18.242691 178.611221,17.110159 178.011505,15.977627 
z"/>
<path fill="#626264" opacity="1.000000" stroke="none" 
	d="
M177.627365,77.746780 
	C178.145538,76.741356 178.663727,75.735924 179.388367,74.081116 
	C179.609268,71.612411 179.623734,69.793106 179.638199,67.973793 
	C179.854782,62.372017 180.071365,56.770237 180.738953,50.840553 
	C181.514282,50.488674 181.817230,50.395290 182.357758,50.282410 
	C183.084671,50.135624 183.552643,49.938923 184.444931,49.657230 
	C186.840149,49.556004 188.811081,49.539768 190.676407,49.949196 
	C190.629166,57.485943 190.512558,64.605446 190.853882,71.702919 
	C190.954468,73.794662 192.350174,75.824127 193.079895,78.175232 
	C192.913010,78.858017 192.818542,79.247704 192.321411,79.638023 
	C187.249512,79.610687 182.580276,79.582733 177.870193,79.098053 
	C177.762009,78.343147 177.694687,78.044960 177.627365,77.746780 
z"/>
<path fill="#696A6D" opacity="1.000000" stroke="none" 
	d="
M237.033142,33.388348 
	C233.749008,33.911594 230.372437,33.986954 226.467255,33.786781 
	C225.871628,33.330025 225.804642,33.148796 225.737656,32.967571 
	C225.814575,28.666372 226.203369,24.337229 225.821625,20.077131 
	C225.658997,18.262188 223.885452,16.591597 222.252411,14.523613 
	C220.768967,14.173031 219.877106,14.154240 218.985245,14.135449 
	C220.418320,13.745687 221.841431,13.066274 223.286209,13.016552 
	C229.379425,12.806855 235.479111,12.784906 242.015991,12.816589 
	C242.587723,13.271530 242.719910,13.604162 242.852081,13.936795 
	C242.852081,13.936795 242.407410,13.910675 241.916702,13.903995 
	C240.927689,14.195207 240.429398,14.493098 239.931091,14.790993 
	C238.931854,16.277403 237.204086,17.701712 237.071091,19.261963 
	C236.684906,23.792246 236.938278,28.377048 237.033142,33.388348 
z"/>
<path fill="#296695" opacity="1.000000" stroke="none" 
	d="
M30.048651,130.012466 
	C29.577845,134.356140 29.107040,138.699814 28.485537,144.433823 
	C27.141188,143.303192 25.204237,142.443954 25.180498,141.534775 
	C24.950953,132.742432 25.042749,123.941681 25.042749,114.840691 
	C29.248056,114.840691 33.063946,114.634598 36.846916,114.899178 
	C40.563995,115.159149 43.753296,116.741608 44.558334,120.792297 
	C45.342690,124.738930 42.869881,126.950264 39.075333,127.886856 
	C38.998032,124.917824 40.477020,122.168869 39.714458,120.370300 
	C38.907349,118.466682 36.124569,116.930244 33.898853,116.279320 
	C32.613674,115.903458 29.382727,117.521042 29.336597,118.367287 
	C29.126322,122.224609 29.734627,126.126556 30.048651,130.012466 
z"/>
<path fill="#226192" opacity="1.000000" stroke="none" 
	d="
M219.233215,144.166931 
	C210.801605,142.484039 206.756546,136.952835 207.499634,128.682709 
	C208.265854,120.155045 212.887146,115.305992 219.641281,115.173622 
	C217.599838,117.703690 214.340225,120.269600 213.189713,123.570602 
	C211.960083,127.098618 212.052200,131.446472 212.764297,135.210007 
	C213.902267,141.224365 216.419769,142.587845 224.482956,143.898926 
	C222.876068,143.997086 221.269180,144.095230 219.233215,144.166931 
z"/>
<path fill="#F5F8FA" opacity="1.000000" stroke="none" 
	d="
M30.296116,129.908951 
	C29.734627,126.126556 29.126322,122.224609 29.336597,118.367287 
	C29.382727,117.521042 32.613674,115.903458 33.898853,116.279320 
	C36.124569,116.930244 38.907349,118.466682 39.714458,120.370300 
	C40.477020,122.168869 38.998032,124.917824 38.603111,127.688194 
	C38.701225,128.127640 38.557423,128.080643 38.133934,127.916840 
	C35.781509,128.162415 33.852573,128.571793 31.923637,128.981171 
	C31.463619,129.255920 31.003599,129.530685 30.296116,129.908951 
z"/>
<path fill="#226192" opacity="1.000000" stroke="none" 
	d="
M253.072266,130.977768 
	C253.070755,134.309464 253.284790,137.662781 252.953720,140.961395 
	C252.833862,142.155777 251.409470,143.219223 249.594788,144.059036 
	C251.743546,132.336761 243.774582,124.593346 239.828629,115.497040 
	C240.134567,115.124138 240.440506,114.751228 240.746445,114.378326 
	C242.157425,115.372086 244.081284,116.063522 244.879868,117.418282 
	C246.983582,120.987045 248.598373,124.844017 250.716324,129.132629 
	C251.707275,130.111938 252.389771,130.544846 253.072266,130.977768 
z"/>
<path fill="#226192" opacity="1.000000" stroke="none" 
	d="
M226.870438,141.877960 
	C235.077545,132.674545 233.582413,120.702393 223.543900,115.240883 
	C229.721954,114.726624 233.792603,117.334488 235.583832,122.954300 
	C238.120667,130.913315 235.350418,138.228928 227.672699,142.450317 
	C227.090836,142.159439 226.980637,142.018692 226.870438,141.877960 
z"/>
<path fill="#296695" opacity="1.000000" stroke="none" 
	d="
M180.066772,127.350189 
	C183.664719,122.593491 188.631561,122.183617 192.505157,126.881393 
	C190.521057,126.399620 189.400696,125.867325 188.309952,125.922325 
	C186.574722,126.009834 184.859222,126.488907 183.135376,126.802368 
	C184.011078,128.390549 184.664871,130.173203 185.832535,131.505493 
	C186.769409,132.574417 188.703842,132.818314 189.528366,133.925308 
	C190.883606,135.744904 192.871307,138.286285 192.422852,139.932266 
	C191.942017,141.697144 189.128738,143.346695 187.011581,143.993805 
	C185.042023,144.595795 182.649002,143.812286 180.442413,143.638748 
	C180.483307,143.221268 180.524185,142.803772 180.565063,142.386292 
	C181.668762,142.540390 182.883484,143.062561 183.852524,142.770248 
	C185.740601,142.200714 187.491074,141.175079 189.298538,140.338318 
	C188.337616,138.782532 187.688812,136.844940 186.350464,135.750793 
	C183.603867,133.505402 179.562988,132.460373 180.066772,127.350189 
z"/>
<path fill="#195B8E" opacity="1.000000" stroke="none" 
	d="
M76.943680,135.024597 
	C76.658958,137.062515 76.510597,139.132965 76.035446,141.125473 
	C75.774284,142.220642 74.962868,143.184601 74.399551,144.207718 
	C74.002281,144.016647 73.605011,143.825592 73.207741,143.634521 
	C73.207741,133.771622 73.207741,123.908737 73.207741,113.375061 
	C77.882195,115.299164 75.573891,118.911110 75.968933,121.440689 
	C76.424820,124.359863 76.168716,127.390221 76.609093,130.688690 
	C76.996399,131.005066 76.988678,130.947525 76.703323,130.843445 
	C76.298721,131.116150 76.179466,131.492950 76.027718,132.197968 
	C75.978432,132.965363 75.961647,133.404510 76.003952,134.186768 
	C76.366684,134.701843 76.670311,134.873795 76.980713,135.020096 
	C76.987473,134.994446 76.943680,135.024597 76.943680,135.024597 
z"/>
<path fill="#316C99" opacity="1.000000" stroke="none" 
	d="
M60.501472,140.900070 
	C60.896282,136.382523 61.422318,131.867447 61.507889,127.344048 
	C61.517788,126.820869 59.114342,125.923790 57.769341,125.784721 
	C56.011642,125.602982 54.193699,126.003975 51.376221,126.240265 
	C55.453228,123.213654 59.394680,122.418083 62.523911,124.418076 
	C64.450264,125.649284 65.294350,129.226608 65.779121,131.903610 
	C66.462051,135.674850 66.361679,139.587921 66.632446,144.035065 
	C65.310089,143.314850 64.023834,142.614288 61.893833,141.814209 
	C60.867218,141.443146 60.684349,141.171600 60.501472,140.900070 
z"/>
<path fill="#1D5F91" opacity="1.000000" stroke="none" 
	d="
M121.008255,125.479538 
	C127.753525,121.871140 130.960388,123.755959 131.009750,131.381149 
	C131.035507,135.360428 131.014282,139.340027 129.925690,144.204575 
	C129.183899,143.340317 127.878113,142.522263 127.802826,141.603409 
	C127.545456,138.462280 127.650070,135.283539 127.748077,132.123215 
	C127.878639,127.912834 126.516190,125.288292 121.357178,125.716537 
	C120.999687,125.456451 121.008255,125.479538 121.008255,125.479538 
z"/>
<path fill="#316C99" opacity="1.000000" stroke="none" 
	d="
M159.166534,139.317017 
	C159.080734,135.069122 158.930786,131.245224 159.124908,127.438850 
	C159.184326,126.273903 160.187958,125.157104 160.759186,124.018250 
	C161.448837,125.227234 162.632584,126.396545 162.733444,127.652802 
	C163.011520,131.116379 162.529236,134.654602 162.956528,138.087494 
	C163.210938,140.131332 164.613419,142.032272 165.552246,144.113861 
	C162.747803,144.949478 160.317337,143.635361 159.166534,139.317017 
z"/>
<path fill="#236292" opacity="1.000000" stroke="none" 
	d="
M96.231262,133.022873 
	C95.914803,140.166779 97.443512,141.407837 107.650322,142.293243 
	C102.277206,145.510132 96.611237,144.570541 93.950943,140.021454 
	C90.952057,134.893356 92.856888,128.140030 98.779930,125.144333 
	C98.256569,128.109589 97.243919,130.566223 96.231262,133.022873 
z"/>
<path fill="#2B6796" opacity="1.000000" stroke="none" 
	d="
M142.194031,128.000839 
	C142.097122,132.299194 142.162750,136.611420 141.798233,140.886963 
	C141.696899,142.075623 140.321167,143.155640 139.530106,144.285492 
	C139.127823,144.017578 138.725540,143.749680 138.323257,143.481781 
	C138.033737,137.181091 137.744217,130.880402 137.418289,123.787170 
	C138.831360,124.770386 140.145935,125.685051 141.764526,127.052155 
	C142.110367,127.670006 142.152206,127.835426 142.194031,128.000839 
z"/>
<path fill="#226192" opacity="1.000000" stroke="none" 
	d="
M175.810364,142.589005 
	C173.681473,142.616852 171.548950,142.242050 170.159439,141.997849 
	C170.432739,138.351013 170.705246,135.091278 170.907852,131.827194 
	C170.989716,130.508438 170.693802,129.129196 170.979172,127.870277 
	C171.278458,126.550003 172.068573,125.340996 172.644180,124.083359 
	C173.157135,125.270378 174.020859,126.430756 174.113449,127.649704 
	C174.338455,130.612244 174.017609,133.618866 174.283646,136.574707 
	C174.454727,138.475555 175.276581,140.317825 175.810364,142.589005 
z"/>
<path fill="#216091" opacity="1.000000" stroke="none" 
	d="
M143.030502,125.927139 
	C145.563263,125.364220 148.401932,123.870079 150.521088,124.566231 
	C151.930496,125.029236 152.757980,128.563232 153.048111,130.825012 
	C153.468155,134.099686 153.299088,137.474869 153.100937,140.790405 
	C153.031708,141.948944 152.132263,143.057846 151.611954,144.189423 
	C151.062958,144.045197 150.513962,143.900986 149.964966,143.756760 
	C149.964966,139.654968 149.896027,135.551651 149.985580,131.451813 
	C150.065033,127.815338 148.819153,125.629768 144.145752,126.062668 
	C143.355148,126.015648 143.192825,125.971397 143.030502,125.927139 
z"/>
<path fill="#296695" opacity="1.000000" stroke="none" 
	d="
M32.021698,129.312714 
	C33.852573,128.571793 35.781509,128.162415 38.118977,127.889542 
	C38.503738,129.444504 37.893299,131.286575 38.558365,132.207672 
	C41.348682,136.072113 44.520832,139.660843 47.553143,143.350555 
	C47.216320,143.825302 46.879498,144.300034 46.542671,144.774780 
	C44.729248,143.691696 42.499107,142.969940 41.184731,141.454117 
	C37.939411,137.711441 35.113972,133.604675 32.021698,129.312714 
z"/>
<path fill="#236292" opacity="1.000000" stroke="none" 
	d="
M120.679001,125.851028 
	C121.008255,125.479538 120.999687,125.456451 121.011772,125.439636 
	C120.452988,127.673241 119.616951,129.896057 119.379128,132.181137 
	C119.089233,134.966431 119.475716,137.820389 119.213333,140.611145 
	C119.106934,141.742767 118.060730,142.786026 117.442169,143.869492 
	C116.964737,142.827087 116.139442,141.807739 116.068634,140.738403 
	C115.716331,135.417557 115.562614,130.083572 115.321243,124.331772 
	C116.738991,124.864853 118.544365,125.543686 120.679001,125.851028 
z"/>
<path fill="#EEF2F5" opacity="1.000000" stroke="none" 
	d="
M96.641449,133.020340 
	C97.243919,130.566223 98.256569,128.109589 99.133446,125.295296 
	C98.997673,124.937660 99.005051,124.994637 99.294266,125.229813 
	C103.982635,125.401428 106.674355,127.044472 106.083633,131.968338 
	C103.072960,132.318161 100.062294,132.667984 96.641449,133.020340 
z"/>
<path fill="#296695" opacity="1.000000" stroke="none" 
	d="
M75.944855,133.843658 
	C75.961647,133.404510 75.978432,132.965363 76.348473,132.196503 
	C76.797379,131.560364 76.893028,131.253937 76.988678,130.947525 
	C76.988678,130.947525 76.996399,131.005066 76.968414,130.998627 
	C78.563110,132.313080 80.325539,133.497482 81.777847,134.984741 
	C84.386559,137.656204 86.809059,140.509506 89.977837,144.029373 
	C82.301453,144.135056 81.716400,137.116074 77.260422,134.781158 
	C76.943680,135.024597 76.987473,134.994446 77.175453,134.660248 
	C76.890572,134.165268 76.417717,134.004471 75.944855,133.843658 
z"/>
<path fill="#FDFDFE" opacity="1.000000" stroke="none" 
	d="
M253.413956,130.929108 
	C252.389771,130.544846 251.707275,130.111938 250.992676,129.346466 
	C252.026306,127.964302 253.377762,127.081223 254.104492,125.834106 
	C256.345520,121.988342 258.347961,118.003571 260.443085,114.072784 
	C261.026062,114.374496 261.609039,114.676208 262.192017,114.977928 
	C259.379883,120.278770 256.567780,125.579613 253.413956,130.929108 
z"/>
<path fill="#EBEEF1" opacity="1.000000" stroke="none" 
	d="
M190.124359,41.089287 
	C190.224091,34.276222 190.323837,27.463156 190.648575,20.306044 
	C191.245697,23.585455 191.753113,27.201551 191.950653,30.834497 
	C192.136292,34.248722 191.994720,37.680733 191.717590,41.574444 
	C191.000153,41.725739 190.562256,41.407513 190.124359,41.089287 
z"/>
<path fill="#236292" opacity="1.000000" stroke="none" 
	d="
M106.397919,132.089874 
	C106.674355,127.044472 103.982635,125.401428 99.266876,125.220856 
	C101.404358,124.877831 104.310013,123.933533 106.178246,124.931442 
	C107.854004,125.826523 108.388626,128.858017 109.426674,130.947021 
	C108.521851,131.368469 107.617027,131.789932 106.397919,132.089874 
z"/>
<path fill="#2B6796" opacity="1.000000" stroke="none" 
	d="
M59.220436,143.022842 
	C56.067421,145.047440 52.842560,145.009644 51.481674,141.354156 
	C50.047523,137.501862 53.176620,135.970703 57.145935,134.643143 
	C55.471851,137.861755 52.370586,141.122482 58.574230,142.405212 
	C58.995586,142.606277 59.220436,143.022842 59.220436,143.022842 
z"/>
<path fill="#5684A6" opacity="1.000000" stroke="none" 
	d="
M190.027206,41.431870 
	C190.562256,41.407513 191.000153,41.725739 191.714233,42.046028 
	C193.036926,41.962059 194.083420,41.876034 195.523987,41.828697 
	C196.203842,42.391430 196.489639,42.915478 196.663239,43.977333 
	C195.038162,44.996540 193.525314,45.477947 191.851929,45.668335 
	C190.823944,45.332851 189.956482,45.288387 189.089035,45.243923 
	C189.369370,44.087433 189.649719,42.930939 190.027206,41.431870 
z"/>
<path fill="#FDFDFE" opacity="1.000000" stroke="none" 
	d="
M109.764778,77.043114 
	C110.072693,77.833076 109.979210,78.604622 109.957581,79.653526 
	C108.162277,80.112732 106.295120,80.294563 104.427963,80.476402 
	C104.352669,79.772858 104.277374,79.069313 104.202080,78.365768 
	C105.922508,77.918739 107.642944,77.471710 109.764778,77.043114 
z"/>
<path fill="#EEF2F5" opacity="1.000000" stroke="none" 
	d="
M175.848541,83.486923 
	C173.149948,81.946968 170.451370,80.407013 167.566559,78.563568 
	C168.903946,78.490242 170.427551,78.720413 172.514938,79.184769 
	C173.740509,79.780609 174.402298,80.142250 175.136017,80.888092 
	C175.421463,82.010506 175.634995,82.748718 175.848541,83.486923 
z"/>
<path fill="#FDFDFE" opacity="1.000000" stroke="none" 
	d="
M123.328125,53.998714 
	C125.920738,49.814587 129.521301,51.915123 133.256775,53.494225 
	C130.245575,53.903709 127.024673,53.952133 123.328125,53.998714 
z"/>
<path fill="#769FBC" opacity="1.000000" stroke="none" 
	d="
M109.727921,12.714525 
	C110.000793,13.456333 110.003265,13.943048 109.934921,14.788353 
	C107.911575,14.831946 105.959045,14.516949 104.006508,14.201950 
	C104.055359,13.621111 104.104210,13.040272 104.153061,12.459433 
	C105.921211,12.459433 107.689369,12.459433 109.727921,12.714525 
z"/>
<path fill="#FDFDFE" opacity="1.000000" stroke="none" 
	d="
M69.786674,42.837257 
	C70.164352,41.038097 71.008987,39.300800 71.853622,37.563503 
	C72.328133,37.641895 72.802650,37.720287 73.277168,37.798683 
	C73.574043,39.267399 73.870926,40.736111 74.083138,42.602417 
	C72.750191,42.966377 71.501907,42.932747 69.786674,42.837257 
z"/>
<path fill="#EBEEF1" opacity="1.000000" stroke="none" 
	d="
M216.713440,35.605148 
	C214.884827,36.553555 212.814758,37.249161 210.357025,37.820778 
	C212.136917,36.915306 214.304459,36.133823 216.713440,35.605148 
z"/>
<path fill="#FDFDFE" opacity="1.000000" stroke="none" 
	d="
M27.489456,44.000290 
	C27.247356,42.310680 27.467098,40.621117 27.686840,38.931557 
	C28.053507,38.809616 28.420174,38.687672 28.786840,38.565727 
	C29.713060,40.052166 30.639282,41.538605 31.610970,43.408165 
	C30.421391,43.860973 29.186346,43.930656 27.489456,44.000290 
z"/>
<path fill="#FDFDFE" opacity="1.000000" stroke="none" 
	d="
M55.463997,57.998703 
	C55.225311,59.523861 54.530281,61.048767 53.382023,63.568073 
	C52.067951,61.462986 51.286217,60.210674 50.459904,58.567368 
	C51.946102,58.117062 53.476875,58.057755 55.463997,57.998703 
z"/>
<path fill="#8BADC6" opacity="1.000000" stroke="none" 
	d="
M25.395300,79.696899 
	C24.848013,78.849335 24.568386,78.202721 24.199905,77.217102 
	C25.995659,77.392960 27.880264,77.907822 29.764870,78.422691 
	C29.704411,78.857086 29.643950,79.291481 29.583490,79.725883 
	C28.276648,79.783203 26.969803,79.840523 25.395300,79.696899 
z"/>
<path fill="#8BADC6" opacity="1.000000" stroke="none" 
	d="
M125.220413,79.878769 
	C124.898422,79.293968 124.991058,78.870636 125.153419,78.128769 
	C127.274178,77.952156 129.325211,78.094070 131.376236,78.235985 
	C131.393829,78.736320 131.411438,79.236656 131.429031,79.736992 
	C129.497696,79.838074 127.566360,79.939156 125.220413,79.878769 
z"/>
<path fill="#8BADC6" opacity="1.000000" stroke="none" 
	d="
M93.165504,79.808182 
	C92.836357,79.255165 92.904518,78.864243 93.043686,78.182358 
	C94.879257,78.041916 96.643829,78.192421 98.408394,78.342926 
	C98.396126,78.885368 98.383858,79.427818 98.371590,79.970261 
	C96.768661,79.970261 95.165733,79.970261 93.165504,79.808182 
z"/>
<path fill="#B6B6B6" opacity="1.000000" stroke="none" 
	d="
M175.064102,80.503891 
	C174.402298,80.142250 173.740509,79.780609 172.901108,79.189178 
	C174.115891,78.569565 175.508286,78.179749 177.264008,77.768356 
	C177.694687,78.044960 177.762009,78.343147 177.712875,79.307213 
	C176.752304,80.150024 175.908203,80.326958 175.064102,80.503891 
z"/>
<path fill="#EEF2F5" opacity="1.000000" stroke="none" 
	d="
M179.301300,68.082458 
	C179.623734,69.793106 179.609268,71.612411 179.363052,73.737564 
	C179.075653,72.092644 179.020020,70.141884 179.301300,68.082458 
z"/>
<path fill="#8BADC6" opacity="1.000000" stroke="none" 
	d="
M14.558419,76.922913 
	C14.663547,77.588196 14.410904,78.267662 13.991879,79.272812 
	C12.690752,79.682938 11.556008,79.767380 10.421265,79.851814 
	C10.316616,79.439323 10.211968,79.026825 10.107321,78.614326 
	C11.471764,78.055252 12.836206,77.496178 14.558419,76.922913 
z"/>
<path fill="#CFD7DC" opacity="1.000000" stroke="none" 
	d="
M179.022552,49.081532 
	C177.011948,49.445755 175.001328,49.809982 172.990723,50.174213 
	C172.887009,49.721058 172.783310,49.267906 172.679596,48.814751 
	C174.507339,48.481190 176.335083,48.147633 178.595642,48.104797 
	C179.026505,48.624187 179.024521,48.852859 179.022552,49.081532 
z"/>
<path fill="#EBEEF1" opacity="1.000000" stroke="none" 
	d="
M225.399033,33.017670 
	C225.804642,33.148796 225.871628,33.330025 226.011505,33.792278 
	C224.276871,34.604229 222.469345,35.135151 220.307556,35.570625 
	C221.655655,34.672703 223.358032,33.870235 225.399033,33.017670 
z"/>
<path fill="#EBEEF1" opacity="1.000000" stroke="none" 
	d="
M236.659546,97.678085 
	C237.935837,96.725212 239.611832,95.889465 241.646973,95.054482 
	C240.357178,95.968567 238.708221,96.881889 236.659546,97.678085 
z"/>
<path fill="#EEF2F5" opacity="1.000000" stroke="none" 
	d="
M143.068878,51.358875 
	C140.893509,50.503113 140.064148,48.989071 142.559875,46.847160 
	C142.947525,48.146255 143.001831,49.543678 143.068878,51.358875 
z"/>
<path fill="#EBEEF1" opacity="1.000000" stroke="none" 
	d="
M192.391174,16.009615 
	C193.405807,15.260931 194.818680,14.526733 196.596954,13.863617 
	C195.571365,14.631166 194.180389,15.327633 192.391174,16.009615 
z"/>
<path fill="#FDFDFE" opacity="1.000000" stroke="none" 
	d="
M84.924110,125.926613 
	C85.904366,124.949654 86.884628,123.972702 87.864883,122.995750 
	C88.203049,123.454262 88.541206,123.912781 88.879372,124.371292 
	C87.837898,124.919548 86.796425,125.467796 85.370453,126.003098 
	C84.985962,125.990150 84.924110,125.926613 84.924110,125.926613 
z"/>
<path fill="#EEF2F5" opacity="1.000000" stroke="none" 
	d="
M144.966232,15.433956 
	C143.826431,15.314442 142.630875,14.887523 141.220245,14.221865 
	C142.306946,14.364266 143.608719,14.745410 144.966232,15.433956 
z"/>
<path fill="#EEF2F5" opacity="1.000000" stroke="none" 
	d="
M179.245331,49.370270 
	C179.024521,48.852859 179.026505,48.624187 178.999664,48.050564 
	C178.970871,47.705608 178.969330,47.347260 178.988312,47.169113 
	C179.473770,47.293392 179.940262,47.595810 180.947784,48.137970 
	C181.692154,48.995975 181.895477,49.614235 182.098816,50.232498 
	C181.817230,50.395290 181.514282,50.488674 180.962799,50.449017 
	C180.313126,50.143261 179.890610,49.901134 179.245331,49.370270 
z"/>
<path fill="#EBEEF1" opacity="1.000000" stroke="none" 
	d="
M177.996521,16.333817 
	C178.611221,17.110159 179.210953,18.242691 179.709839,19.707127 
	C179.066498,18.922689 178.524002,17.806349 177.996521,16.333817 
z"/>
<path fill="#FDFDFE" opacity="1.000000" stroke="none" 
	d="
M86.906425,56.990685 
	C86.334579,56.327808 86.072906,55.491768 85.898628,54.327759 
	C86.396217,54.939034 86.806412,55.878277 86.906425,56.990685 
z"/>
<path fill="#FDFDFE" opacity="1.000000" stroke="none" 
	d="
M20.646542,45.055912 
	C20.950212,45.878414 20.906794,46.756756 20.669979,47.908188 
	C20.417540,47.158104 20.358496,46.134926 20.646542,45.055912 
z"/>
<path fill="#EBEEF1" opacity="1.000000" stroke="none" 
	d="
M245.966888,34.374619 
	C245.177170,34.624680 244.323547,34.569805 243.223343,34.296967 
	C243.952179,34.075890 244.927582,34.072788 245.966888,34.374619 
z"/>
<path fill="#FDFDFE" opacity="1.000000" stroke="none" 
	d="
M22.470203,33.068130 
	C22.780155,33.867455 22.763042,34.734653 22.563290,35.875435 
	C22.301479,35.144680 22.222309,34.140343 22.470203,33.068130 
z"/>
<path fill="#EBEEF1" opacity="1.000000" stroke="none" 
	d="
M173.037506,14.490835 
	C173.878036,14.184189 174.774780,14.199082 175.869415,14.502112 
	C175.076126,14.797624 174.084930,14.804999 173.037506,14.490835 
z"/>
<path fill="#EBEEF1" opacity="1.000000" stroke="none" 
	d="
M219.040070,14.461563 
	C219.877106,14.154240 220.768967,14.173031 221.871582,14.464710 
	C221.086533,14.754292 220.090714,14.770985 219.040070,14.461563 
z"/>
<path fill="#EAF0F5" opacity="1.000000" stroke="none" 
	d="
M59.520916,143.012146 
	C59.220436,143.022842 58.995586,142.606277 58.970898,142.370895 
	C59.325901,141.747482 59.705593,141.359451 60.293381,140.935760 
	C60.684349,141.171600 60.867218,141.443146 61.518681,141.861511 
	C61.265312,142.339371 60.543354,142.670410 59.520916,143.012146 
z"/>
<path fill="#EEF2F5" opacity="1.000000" stroke="none" 
	d="
M156.057770,67.440475 
	C155.343323,67.103394 154.611481,66.410721 153.808319,65.413940 
	C154.504776,65.768188 155.272583,66.426537 156.057770,67.440475 
z"/>
<path fill="#EEF2F5" opacity="1.000000" stroke="none" 
	d="
M147.040787,56.520245 
	C146.340668,56.147015 145.633591,55.418381 144.885773,54.376789 
	C145.574646,54.764168 146.304230,55.464504 147.040787,56.520245 
z"/>
<path fill="#EEF2F5" opacity="1.000000" stroke="none" 
	d="
M151.999969,62.644577 
	C151.267715,62.264706 150.543655,61.509960 149.763367,60.438148 
	C150.474152,60.837288 151.241150,61.553493 151.999969,62.644577 
z"/>
<path fill="#EBEEF1" opacity="1.000000" stroke="none" 
	d="
M183.009323,97.528000 
	C183.525452,97.344147 184.078140,97.437057 184.818375,97.753136 
	C184.352570,97.919113 183.699234,97.861938 183.009323,97.528000 
z"/>
<path fill="#8BADC6" opacity="1.000000" stroke="none" 
	d="
M22.836912,73.004555 
	C22.750254,72.423317 22.663597,71.842087 22.791759,71.130325 
	C23.216185,71.431381 23.425793,71.862976 23.453201,72.623375 
	C23.270998,72.952187 22.836912,73.004555 22.836912,73.004555 
z"/>
<path fill="#EBEEF1" opacity="1.000000" stroke="none" 
	d="
M187.005981,98.649124 
	C187.516907,98.457321 188.072586,98.529633 188.804077,98.834213 
	C188.336823,99.015404 187.693771,98.964333 187.005981,98.649124 
z"/>
<path fill="#EBEEF1" opacity="1.000000" stroke="none" 
	d="
M231.150665,99.249817 
	C231.493942,98.749802 231.979858,98.476341 232.750839,98.275635 
	C232.455048,98.724380 231.874191,99.100372 231.150665,99.249817 
z"/>
<path fill="#EBEEF1" opacity="1.000000" stroke="none" 
	d="
M195.015823,100.550629 
	C195.538467,100.303307 196.104691,100.339577 196.861908,100.600510 
	C196.388412,100.828194 195.723892,100.831207 195.015823,100.550629 
z"/>
<path fill="#EBEEF1" opacity="1.000000" stroke="none" 
	d="
M223.083435,101.089371 
	C223.456100,100.596779 223.962143,100.352539 224.748962,100.200867 
	C224.425430,100.641541 223.821136,100.989639 223.083435,101.089371 
z"/>
<path fill="#FDFDFE" opacity="1.000000" stroke="none" 
	d="
M85.014160,126.024368 
	C84.573402,126.822411 84.104454,127.586243 83.635506,128.350067 
	C83.420464,128.205917 83.205421,128.061768 82.990372,127.917625 
	C83.439117,127.295570 83.887856,126.673523 84.630356,125.989044 
	C84.924110,125.926613 84.985962,125.990150 85.014160,126.024368 
z"/>
<path fill="#EBEEF1" opacity="1.000000" stroke="none" 
	d="
M172.324921,12.264917 
	C172.525620,12.702858 172.378632,13.051507 172.168533,13.677474 
	C171.580978,13.599245 171.056534,13.243698 170.532074,12.888152 
	C171.013794,12.650645 171.495499,12.413136 172.324921,12.264917 
z"/>
<path fill="#EBEEF1" opacity="1.000000" stroke="none" 
	d="
M243.193268,13.932623 
	C242.719910,13.604162 242.587723,13.271530 242.362274,12.688482 
	C242.968384,12.508391 243.667770,12.578717 244.367172,12.649040 
	C244.089584,13.075509 243.812012,13.501980 243.193268,13.932623 
z"/>
<path fill="#FDFDFE" opacity="1.000000" stroke="none" 
	d="
M25.668446,14.039909 
	C25.898077,14.570285 25.817799,15.140326 25.538128,15.922722 
	C25.345335,15.449909 25.351936,14.764743 25.668446,14.039909 
z"/>
<path fill="#EBEEF1" opacity="1.000000" stroke="none" 
	d="
M240.071442,15.051675 
	C240.429398,14.493098 240.927689,14.195207 241.719879,14.008245 
	C241.413116,14.516903 240.812454,14.914631 240.071442,15.051675 
z"/>
<path fill="#FDFDFE" opacity="1.000000" stroke="none" 
	d="
M81.730125,23.072302 
	C81.236000,22.657251 81.043533,22.112617 80.942429,21.284210 
	C81.366463,21.647863 81.699120,22.295290 81.730125,23.072302 
z"/>
<path fill="#EBEEF1" opacity="1.000000" stroke="none" 
	d="
M249.983521,35.271027 
	C249.486176,35.519371 248.928192,35.506279 248.174561,35.282928 
	C248.626907,35.051643 249.274902,35.030613 249.983521,35.271027 
z"/>
<path fill="#EBEEF1" opacity="1.000000" stroke="none" 
	d="
M253.981628,36.613998 
	C253.441086,36.790058 252.871048,36.675995 252.142883,36.306259 
	C252.640564,36.141685 253.296356,36.232777 253.981628,36.613998 
z"/>
<path fill="#EEF2F5" opacity="1.000000" stroke="none" 
	d="
M150.463318,37.925690 
	C150.395111,37.211693 150.697769,36.415745 151.258484,35.420250 
	C151.289108,36.095051 151.061661,36.969395 150.463318,37.925690 
z"/>
<path fill="#EBEEF1" opacity="1.000000" stroke="none" 
	d="
M207.816956,37.673515 
	C207.493958,38.168152 207.022385,38.451859 206.254822,38.658852 
	C206.528671,38.208954 207.098541,37.835766 207.816956,37.673515 
z"/>
<path fill="#EBEEF1" opacity="1.000000" stroke="none" 
	d="
M257.935120,38.492004 
	C257.230621,38.540226 256.444733,38.229866 255.483032,37.643559 
	C256.156036,37.622879 257.004883,37.878147 257.935120,38.492004 
z"/>
<path fill="#EBEEF1" opacity="1.000000" stroke="none" 
	d="
M203.861084,38.786537 
	C203.530777,39.331364 203.055786,39.642891 202.277191,39.848129 
	C202.554504,39.345642 203.135452,38.949440 203.861084,38.786537 
z"/>
<path fill="#FDFDFE" opacity="1.000000" stroke="none" 
	d="
M84.806808,44.049957 
	C84.354744,43.636963 84.188301,43.095848 84.112213,42.277737 
	C84.499191,42.641106 84.795815,43.281467 84.806808,44.049957 
z"/>
<path fill="#FDFDFE" opacity="1.000000" stroke="none" 
	d="
M26.594528,48.937771 
	C26.274530,48.439739 26.248747,47.878563 26.372072,47.073097 
	C26.643702,47.510750 26.766220,48.192688 26.594528,48.937771 
z"/>
<path fill="#EBEEF1" opacity="1.000000" stroke="none" 
	d="
M268.321625,51.815781 
	C267.808105,51.493408 267.512390,51.020584 267.268188,50.256927 
	C267.726288,50.532509 268.132843,51.098915 268.321625,51.815781 
z"/>
<path fill="#8BADC6" opacity="1.000000" stroke="none" 
	d="
M24.895950,58.147755 
	C24.642956,57.568981 24.648581,56.805241 24.892963,55.850037 
	C25.139336,56.426647 25.146952,57.194714 24.895950,58.147755 
z"/>
<path fill="#EBEEF1" opacity="1.000000" stroke="none" 
	d="
M243.662598,94.713737 
	C243.987656,94.118332 244.677444,93.624809 245.692398,93.144615 
	C245.354141,93.710503 244.690720,94.263054 243.662598,94.713737 
z"/>
<path fill="#EBEEF1" opacity="1.000000" stroke="none" 
	d="
M251.857285,89.826111 
	C252.107178,89.198715 252.726212,88.619919 253.667953,88.009544 
	C253.402573,88.610222 252.814499,89.242470 251.857285,89.826111 
z"/>
<path fill="#EBEEF1" opacity="1.000000" stroke="none" 
	d="
M264.358917,76.930336 
	C264.333832,76.219620 264.688049,75.442505 265.301819,74.464500 
	C265.286987,75.130386 265.012604,75.997162 264.358917,76.930336 
z"/>
<path fill="#FDFDFE" opacity="1.000000" stroke="none" 
	d="
M22.848461,73.347885 
	C22.836912,73.004555 23.270998,72.952187 23.475815,72.879898 
	C23.721643,73.504776 23.762655,74.201942 23.509468,74.948647 
	C23.096851,74.562531 22.978432,74.126869 22.848461,73.347885 
z"/>
<path fill="#8BADC6" opacity="1.000000" stroke="none" 
	d="
M77.867416,71.143265 
	C78.321121,71.559891 78.567795,72.118362 78.686417,72.979126 
	C78.259041,72.615974 77.959717,71.950539 77.867416,71.143265 
z"/>
<path fill="#EBEEF1" opacity="1.000000" stroke="none" 
	d="
M267.606506,69.995346 
	C267.428741,69.472458 267.516968,68.908867 267.855713,68.189049 
	C268.028351,68.673424 267.950439,69.314026 267.606506,69.995346 
z"/>
<path fill="#EBEEF1" opacity="1.000000" stroke="none" 
	d="
M268.863159,65.973846 
	C268.600586,65.503044 268.583160,64.956093 268.756195,64.197227 
	C269.000549,64.622772 269.054474,65.260239 268.863159,65.973846 
z"/>
<path fill="#FDFDFE" opacity="1.000000" stroke="none" 
	d="
M87.839348,65.038162 
	C87.430099,64.621239 87.297035,64.081535 87.249077,63.269844 
	C87.594627,63.637032 87.855072,64.276207 87.839348,65.038162 
z"/>
<path fill="#8BADC6" opacity="1.000000" stroke="none" 
	d="
M76.593887,60.958099 
	C77.050179,61.334045 77.325066,62.006790 77.413284,62.833588 
	C76.955246,62.410061 76.683861,61.832478 76.593887,60.958099 
z"/>
<path fill="#EBEEF1" opacity="1.000000" stroke="none" 
	d="
M269.158844,55.897835 
	C268.753235,55.503700 268.574219,54.987663 268.509827,54.210098 
	C268.878082,54.557686 269.131775,55.166813 269.158844,55.897835 
z"/>
<path fill="#FDFDFE" opacity="1.000000" stroke="none" 
	d="
M142.925507,126.154335 
	C143.192825,125.971397 143.355148,126.015648 143.759338,126.131912 
	C143.589645,126.775452 143.178070,127.346992 142.480270,127.959686 
	C142.152206,127.835426 142.110367,127.670006 142.057129,127.248917 
	C142.304001,126.789337 142.562271,126.585434 142.925507,126.154335 
z"/>
<path fill="#EBEEF1" opacity="1.000000" stroke="none" 
	d="
M197.130585,13.912466 
	C196.924072,13.963065 196.897400,13.479671 196.943512,13.242054 
	C197.188828,13.177169 197.397293,13.341465 197.573532,13.535103 
	C197.592056,13.555454 197.420471,13.748792 197.130585,13.912466 
z"/>
<path fill="#226192" opacity="1.000000" stroke="none" 
	d="
M227.326752,142.537048 
	C227.051697,142.536255 226.650925,142.298615 226.560303,141.969467 
	C226.980637,142.018692 227.090836,142.159439 227.326752,142.537048 
z"/>
<path fill="#FDFEFE" opacity="1.000000" stroke="none" 
	d="
M175.136017,80.888092 
	C175.908203,80.326958 176.752304,80.150024 177.753723,79.763931 
	C182.580276,79.582733 187.249512,79.610687 192.751038,79.798248 
	C195.574417,79.957840 197.565506,79.957840 199.556610,79.957840 
	C199.572357,79.389854 199.588120,78.821877 199.603882,78.253891 
	C197.453369,78.129974 195.302856,78.006050 193.152344,77.882126 
	C192.350174,75.824127 190.954468,73.794662 190.853882,71.702919 
	C190.512558,64.605446 190.629166,57.485943 190.755035,49.573826 
	C191.296997,47.834980 191.654724,46.897163 192.012451,45.959351 
	C193.525314,45.477947 195.038162,44.996540 196.775360,44.255119 
	C200.015915,43.554630 203.032135,43.114155 206.640228,42.996483 
	C208.160187,42.956326 209.088242,42.593365 210.016312,42.230408 
	C214.391144,41.778099 218.765976,41.325794 223.705734,41.272942 
	C224.929367,42.477081 225.588058,43.281761 226.189972,44.546097 
	C225.978195,53.996418 225.823196,62.987080 225.367249,72.045647 
	C225.057922,73.079956 225.049561,74.046356 225.040131,75.333252 
	C224.605179,76.373779 224.171326,77.093811 223.356857,77.816742 
	C221.712128,78.088089 220.448013,78.356522 219.183914,78.624954 
	C219.250580,79.071457 219.317245,79.517960 219.383911,79.964462 
	C220.867722,79.851204 222.351532,79.737938 224.302094,79.561005 
	C229.484818,79.520515 234.200790,79.543694 239.150482,79.866440 
	C240.897461,80.285828 242.410706,80.405663 243.935410,80.912842 
	C243.946075,81.816849 243.945297,82.333511 243.944519,82.850174 
	C241.788361,84.097130 239.632217,85.344093 236.763519,86.412369 
	C235.364227,86.779404 234.677490,87.325111 233.990753,87.870804 
	C232.911713,88.298149 231.832687,88.725494 230.267136,88.899368 
	C229.180496,89.008728 228.580399,89.371552 227.980301,89.734383 
	C227.552383,89.868134 227.124451,90.001884 226.162964,89.840538 
	C223.742249,90.193626 221.855103,90.841820 219.967941,91.490005 
	C213.954315,91.589615 207.940689,91.689232 201.396790,91.360916 
	C199.905380,90.971672 198.944214,91.010353 197.983063,91.049026 
	C197.522141,91.021507 197.061203,90.993980 196.258759,90.500473 
	C195.273041,90.038368 194.628815,90.042252 193.984604,90.046143 
	C193.535095,90.035446 193.085602,90.024750 192.280914,89.587151 
	C191.266891,89.155449 190.608047,89.150650 189.949203,89.145851 
	C185.396057,87.425827 180.842896,85.705803 176.069153,83.736359 
	C175.634995,82.748718 175.421463,82.010506 175.136017,80.888092 
z"/>
<path fill="#EEF2F5" opacity="1.000000" stroke="none" 
	d="
M226.246750,44.086441 
	C225.588058,43.281761 224.929367,42.477081 224.147430,41.375183 
	C233.133240,39.086704 241.812332,41.440834 249.931091,44.890739 
	C258.314026,48.452900 261.294708,57.857922 257.969574,66.426765 
	C255.296738,73.314575 250.697311,78.637260 244.276413,82.791412 
	C243.945297,82.333511 243.946075,81.816849 244.138657,80.677643 
	C243.908340,76.219078 240.712952,79.020493 238.900970,77.603912 
	C238.064240,75.486176 237.080963,73.680588 236.980789,71.827271 
	C236.660919,65.908539 236.595917,59.972443 236.566299,54.042389 
	C236.514389,43.646851 236.556000,43.646645 226.246750,44.086441 
z"/>
<path fill="#F3F6F9" opacity="1.000000" stroke="none" 
	d="
M122.257713,43.633678 
	C122.248260,36.074829 122.362732,28.928955 122.196121,21.789640 
	C122.111465,18.161919 123.483757,16.740313 127.145248,16.698965 
	C135.502686,16.604584 141.721542,21.812860 141.869751,30.234907 
	C141.946320,34.587147 141.388870,39.301407 139.704010,43.248573 
	C137.387054,48.676498 129.611938,50.536133 124.496185,47.573223 
	C123.429939,46.955681 122.992561,45.252327 122.257713,43.633678 
z"/>
<path fill="#EEF2F5" opacity="1.000000" stroke="none" 
	d="
M220.319778,91.584076 
	C221.855103,90.841820 223.742249,90.193626 225.825912,89.803986 
	C224.238815,90.601074 222.455215,91.139610 220.319778,91.584076 
z"/>
<path fill="#EEF2F5" opacity="1.000000" stroke="none" 
	d="
M209.696106,42.132214 
	C209.088242,42.593365 208.160187,42.956326 207.068909,43.031105 
	C207.729095,42.506626 208.552505,42.270325 209.696106,42.132214 
z"/>
<path fill="#EEF2F5" opacity="1.000000" stroke="none" 
	d="
M198.217270,91.278358 
	C198.944214,91.010353 199.905380,90.971672 200.949203,91.222183 
	C200.171738,91.510139 199.311615,91.508911 198.217270,91.278358 
z"/>
<path fill="#EEF2F5" opacity="1.000000" stroke="none" 
	d="
M194.181580,90.258980 
	C194.628815,90.042252 195.273041,90.038368 195.972763,90.294708 
	C195.478363,90.527237 194.928467,90.499535 194.181580,90.258980 
z"/>
<path fill="#EEF2F5" opacity="1.000000" stroke="none" 
	d="
M228.266571,89.806503 
	C228.580399,89.371552 229.180496,89.008728 229.916763,88.894333 
	C229.552887,89.388046 229.052856,89.633339 228.266571,89.806503 
z"/>
<path fill="#EEF2F5" opacity="1.000000" stroke="none" 
	d="
M190.131668,89.375206 
	C190.608047,89.150650 191.266891,89.155449 191.973038,89.441208 
	C191.451599,89.682968 190.882874,89.643761 190.131668,89.375206 
z"/>
<path fill="#EEF2F5" opacity="1.000000" stroke="none" 
	d="
M234.317993,87.896866 
	C234.677490,87.325111 235.364227,86.779404 236.419754,86.374649 
	C236.074097,86.984711 235.359665,87.453819 234.317993,87.896866 
z"/>
<path fill="#EEF2F5" opacity="1.000000" stroke="none" 
	d="
M191.851929,45.668335 
	C191.654724,46.897163 191.296997,47.834980 190.860626,49.148163 
	C188.811081,49.539768 186.840149,49.556004 184.451233,49.197510 
	C184.023651,48.213810 184.014053,47.604839 184.004456,46.995865 
	C185.562881,46.601803 187.121338,46.207737 188.884399,45.528797 
	C189.956482,45.288387 190.823944,45.332851 191.851929,45.668335 
z"/>
<path fill="#CFD7DC" opacity="1.000000" stroke="none" 
	d="
M183.659637,46.930840 
	C184.014053,47.604839 184.023651,48.213810 184.026947,49.282505 
	C183.552643,49.938923 183.084671,50.135624 182.357758,50.282410 
	C181.895477,49.614235 181.692154,48.995975 181.227448,48.175430 
	C181.748993,47.604038 182.531906,47.234924 183.659637,46.930840 
z"/>
<path fill="#B6B6B6" opacity="1.000000" stroke="none" 
	d="
M193.079895,78.175224 
	C195.302856,78.006050 197.453369,78.129974 199.603882,78.253891 
	C199.588120,78.821877 199.572357,79.389854 199.556610,79.957840 
	C197.565506,79.957840 195.574417,79.957840 193.153702,79.797623 
	C192.818542,79.247704 192.913010,78.858017 193.079895,78.175224 
z"/>
<path fill="#FDFDFE" opacity="1.000000" stroke="none" 
	d="
M76.703331,130.843445 
	C76.893028,131.253937 76.797379,131.560364 76.380974,131.868256 
	C76.179466,131.492950 76.298721,131.116150 76.703331,130.843445 
z"/>
<path fill="#FDFDFE" opacity="1.000000" stroke="none" 
	d="
M76.003952,134.186768 
	C76.417717,134.004471 76.890572,134.165268 77.168686,134.685913 
	C76.670311,134.873795 76.366684,134.701843 76.003952,134.186768 
z"/>
<path fill="#636365" opacity="1.000000" stroke="none" 
	d="
M226.189972,44.546097 
	C236.556000,43.646645 236.514389,43.646851 236.566299,54.042389 
	C236.595917,59.972443 236.660919,65.908539 236.980789,71.827271 
	C237.080963,73.680588 238.064240,75.486176 238.823502,77.878784 
	C238.974716,78.818268 238.945740,79.192581 238.916763,79.566879 
	C234.200790,79.543694 229.484818,79.520515 224.323853,79.105408 
	C223.831726,78.413605 223.784607,78.113724 223.737473,77.813835 
	C224.171326,77.093811 224.605179,76.373779 225.286896,75.111649 
	C225.579224,73.705612 225.623703,72.841682 225.668198,71.977745 
	C225.823196,62.987080 225.978195,53.996418 226.189972,44.546097 
z"/>
<path fill="#B6B6B6" opacity="1.000000" stroke="none" 
	d="
M239.150482,79.866440 
	C238.945740,79.192581 238.974716,78.818268 239.081177,78.169090 
	C240.712952,79.020493 243.908340,76.219078 244.127213,80.290298 
	C242.410706,80.405663 240.897461,80.285828 239.150482,79.866440 
z"/>
<path fill="#B6B6B6" opacity="1.000000" stroke="none" 
	d="
M223.356857,77.816742 
	C223.784607,78.113724 223.831726,78.413605 223.857101,79.169083 
	C222.351532,79.737938 220.867722,79.851204 219.383911,79.964462 
	C219.317245,79.517960 219.250580,79.071457 219.183914,78.624954 
	C220.448013,78.356522 221.712128,78.088089 223.356857,77.816742 
z"/>
<path fill="#EEF2F5" opacity="1.000000" stroke="none" 
	d="
M225.367249,72.045647 
	C225.623703,72.841682 225.579224,73.705612 225.287979,74.791153 
	C225.049561,74.046356 225.057922,73.079956 225.367249,72.045647 
z"/>
</svg>